<svg width="80" height="77" viewBox="0 0 80 77" fill="none" xmlns="http://www.w3.org/2000/svg">
<path d="M36.9297 21.6626C36.9297 19.9647 38.3061 18.5883 40.004 18.5883C41.7019 18.5883 43.0783 19.9647 43.0783 21.6626V73.9259C43.0783 75.6238 41.7019 77.0002 40.004 77.0002C38.3061 77.0002 36.9297 75.6238 36.9297 73.9259V21.6626Z" fill="oklch(88% 6% 88deg)"/>
<path d="M33.8554 77.0002C32.1575 77.0002 30.7811 75.6238 30.7811 73.9259C30.7811 72.228 32.1575 70.8516 33.8554 70.8516H46.1526C47.8505 70.8516 49.2269 72.228 49.2269 73.9259C49.2269 75.6238 47.8505 77.0002 46.1526 77.0002H33.8554Z" fill="oklch(88% 6% 88deg)"/>
<path d="M0.0787332 22.7012C0.354142 21.0258 1.93559 19.8909 3.611 20.1663C5.28641 20.4417 6.42133 22.0232 6.14592 23.6986C6.14931 23.6779 6.14931 23.7647 6.16462 24.0606L6.1658 24.0835C6.1806 24.3703 6.18664 24.5301 6.18664 24.7371C6.18664 28.1328 8.93946 30.8857 12.3353 30.8857C15.731 30.8857 18.4839 28.1328 18.4839 24.7371C18.4839 24.5499 18.4893 24.3836 18.5012 24.1042C18.5056 23.9967 18.5056 23.9967 18.5091 23.9019C18.5152 23.7202 18.5133 23.625 18.5173 23.6517C18.2677 21.9723 19.4269 20.4085 21.1063 20.159C22.7858 19.9094 24.3496 21.0686 24.5991 22.7481C24.6642 23.1865 24.672 23.5792 24.6542 24.1086C24.6494 24.2407 24.6494 24.2407 24.6446 24.3582C24.6344 24.608 24.6325 24.6679 24.6325 24.7371C24.6325 31.5286 19.1268 37.0343 12.3353 37.0343C5.54368 37.0343 0.0380195 31.5286 0.0380195 24.7371C0.0380195 24.6681 0.0348852 24.5851 0.025356 24.4004L0.0242052 24.3782C-0.0142417 23.6347 -0.0142412 23.2668 0.0787332 22.7012Z" fill="oklch(88% 6% 88deg)"/>
<path d="M7.91719 20.1255H16.7533L12.3353 10.553L7.91719 20.1255ZM15.1266 1.92845L24.3495 21.9115C25.2897 23.9486 23.8018 26.2741 21.5582 26.2741H3.11233C0.868726 26.2741 -0.619219 23.9486 0.320981 21.9115L9.5439 1.92845C10.643 -0.452875 14.0275 -0.452875 15.1266 1.92845Z" fill="oklch(88% 6% 88deg)"/>
<path d="M55.4163 44.2214C55.6917 42.546 57.2731 41.411 58.9485 41.6864C60.6239 41.9619 61.7589 43.5433 61.4835 45.2187C61.4869 45.1981 61.4869 45.2848 61.5022 45.5808L61.5033 45.6036C61.5181 45.8905 61.5242 46.0503 61.5242 46.2572C61.5242 49.653 64.277 52.4058 67.6728 52.4058C71.0686 52.4058 73.8214 49.653 73.8214 46.2572C73.8214 46.0701 73.8268 45.9037 73.8388 45.6244C73.8432 45.5169 73.8432 45.5169 73.8466 45.422C73.8527 45.2404 73.8508 45.1452 73.8548 45.1719C73.6053 43.4924 74.7644 41.9287 76.4439 41.6791C78.1233 41.4296 79.6871 42.5888 79.9366 44.2682C80.0018 44.7066 80.0095 45.0994 79.9917 45.6288C79.987 45.7608 79.987 45.7608 79.9821 45.8783C79.972 46.1281 79.97 46.188 79.97 46.2572C79.97 53.0488 74.4644 58.5544 67.6728 58.5544C60.8812 58.5544 55.3756 53.0488 55.3756 46.2572C55.3756 46.1882 55.3724 46.1052 55.3629 45.9206L55.3617 45.8983C55.3233 45.1549 55.3233 44.787 55.4163 44.2214Z" fill="oklch(88% 6% 88deg)"/>
<path d="M63.2547 41.6456H72.0908L67.6728 32.0731L63.2547 41.6456ZM70.4641 23.4486L79.6871 43.4316C80.6273 45.4687 79.1393 47.7942 76.8957 47.7942H58.4499C56.2063 47.7942 54.7183 45.4687 55.6585 43.4316L64.8814 23.4486C65.9805 21.0673 69.3651 21.0673 70.4641 23.4486Z" fill="oklch(88% 6% 88deg)"/>
<path d="M11.221 6.08213C9.63854 5.46673 8.85459 3.68503 9.46999 2.10259C10.0854 0.520141 11.8671 -0.263807 13.4495 0.351588L35.6386 8.98067C37.221 9.59606 38.005 11.3778 37.3896 12.9602C36.7742 14.5427 34.9925 15.3266 33.41 14.7112L11.221 6.08213ZM45.4219 19.3825C43.8395 18.7671 43.0555 16.9854 43.6709 15.4029C44.2863 13.8205 46.068 13.0365 47.6504 13.6519L68.7871 21.8717C70.3695 22.4871 71.1535 24.2688 70.5381 25.8513C69.9227 27.4337 68.141 28.2177 66.5585 27.6023L45.4219 19.3825Z" fill="oklch(88% 6% 88deg)"/>
<path d="M40.004 24.7369C34.9103 24.7369 30.7811 20.6077 30.7811 15.514C30.7811 10.4203 34.9103 6.29108 40.004 6.29108C45.0977 6.29108 49.2269 10.4203 49.2269 15.514C49.2269 20.6077 45.0977 24.7369 40.004 24.7369ZM40.004 18.5883C41.7019 18.5883 43.0783 17.2119 43.0783 15.514C43.0783 13.8161 41.7019 12.4397 40.004 12.4397C38.3061 12.4397 36.9297 13.8161 36.9297 15.514C36.9297 17.2119 38.3061 18.5883 40.004 18.5883Z" fill="oklch(88% 6% 88deg)"/>
</svg>

