<svg width="80" height="80" viewBox="0 0 80 80" fill="none" xmlns="http://www.w3.org/2000/svg">
<path d="M21.51 20.03C21.1 19.62 20.43 19.62 20.02 20.03C19.61 20.44 19.61 21.11 20.02 21.52L23.84 25.34C24.05 25.55 24.31 25.65 24.58 25.65C24.85 25.65 25.12 25.55 25.32 25.34C25.73 24.93 25.73 24.26 25.32 23.85L21.5 20.03H21.51ZM14.61 29.97C14.55 30.55 14.97 31.07 15.55 31.13L21.15 31.71H21.26C21.79 31.71 22.25 31.31 22.31 30.77C22.37 30.19 21.95 29.67 21.37 29.61L15.77 29.03C15.19 28.97 14.68 29.39 14.61 29.97ZM30.65 22.31H30.76C31.34 22.25 31.76 21.73 31.7 21.15L31.12 15.55C31.06 14.97 30.54 14.54 29.96 14.61C29.38 14.67 28.96 15.19 29.02 15.77L29.6 21.37C29.66 21.91 30.11 22.31 30.65 22.31ZM59.23 60.28C59.5 60.28 59.77 60.18 59.97 59.97C60.38 59.56 60.38 58.89 59.97 58.48L56.15 54.66C55.74 54.25 55.07 54.25 54.66 54.66C54.25 55.07 54.25 55.74 54.66 56.15L58.48 59.97C58.69 60.18 58.95 60.28 59.22 60.28H59.23ZM64.35 50.98C64.88 50.98 65.34 50.58 65.4 50.04C65.46 49.46 65.04 48.94 64.46 48.88L58.86 48.3C58.7205 48.2823 58.5789 48.2926 58.4434 48.3304C58.3079 48.3681 58.1814 48.4326 58.0712 48.5199C57.9609 48.6073 57.8693 48.7157 57.8015 48.839C57.7338 48.9622 57.6914 49.0977 57.6767 49.2376C57.6621 49.3774 57.6755 49.5188 57.7162 49.6534C57.7569 49.788 57.8241 49.9131 57.9139 50.0214C58.0036 50.1297 58.114 50.2189 58.2387 50.284C58.3634 50.349 58.4999 50.3884 58.64 50.4L64.24 50.98H64.35ZM49.92 65.4H50.03C50.61 65.34 51.03 64.82 50.97 64.24L50.39 58.64C50.33 58.06 49.81 57.63 49.23 57.7C48.65 57.76 48.23 58.28 48.29 58.86L48.87 64.46C48.93 65 49.38 65.4 49.92 65.4ZM23.79 38.37C22.92 39.24 22.21 40.22 21.63 41.29C23.86 40.89 26.17 41.02 28.35 41.65L32.78 37.23L28.85 33.31L23.79 38.37ZM37.72 52.29C35.14 54.87 30.94 55.05 28.16 52.7C28.01 52.57 27.87 52.45 27.71 52.29C27.6 52.18 27.51 52.07 27.4 51.95C25.55 50.41 22.83 50.47 21.02 52C21.65 53.57 22.58 54.99 23.79 56.2C25.18 57.59 26.8 58.61 28.62 59.23C31.26 60.12 34.17 60.11 36.81 59.21C38.64 58.59 40.26 57.58 41.63 56.2L46.69 51.14L42.77 47.22L37.71 52.28L37.72 52.29Z" fill="black"/>
<path d="M0 67.39C0 70.76 1.31 73.93 3.7 76.31C8.62 81.23 16.62 81.23 21.53 76.31L33.15 64.69C34.02 63.82 34.74 62.84 35.31 61.77C34.45 61.92 33.57 62 32.7 62C31.31 62 29.93 61.8 28.58 61.41L17.61 72.38C16.9547 73.0383 16.1754 73.5602 15.3172 73.9155C14.459 74.2708 13.5389 74.4525 12.61 74.45H12.6C10.72 74.45 8.95 73.71 7.61 72.39C6.27 71.05 5.55 69.27 5.55 67.39C5.55 65.51 6.28 63.72 7.61 62.39L19.23 50.77C21.81 48.19 26.01 48.01 28.79 50.36C28.94 50.49 29.08 50.62 29.23 50.77C29.35 50.88 29.44 50.99 29.54 51.11C31.39 52.65 34.11 52.59 35.92 51.06C35.29 49.49 34.37 48.07 33.16 46.85C31.7978 45.4878 30.1423 44.4548 28.32 43.83C25.68 42.94 22.77 42.94 20.13 43.84C18.31 44.47 16.69 45.48 15.31 46.85L3.7 58.47C1.31 60.86 0 64.03 0 67.4V67.39ZM51.84 27.3C51.99 27.43 52.13 27.55 52.29 27.71C52.4 27.82 52.49 27.93 52.58 28.04C54.44 29.59 57.15 29.53 58.97 28C58.34 26.43 57.42 25.01 56.2 23.8C54.8457 22.4305 53.1924 21.3934 51.37 20.77C48.73 19.88 45.82 19.89 43.18 20.79C41.36 21.41 39.74 22.42 38.36 23.8L33.3 28.86L37.22 32.78L42.29 27.72C44.87 25.14 49.06 24.96 51.84 27.31V27.3ZM51.65 38.36L47.22 42.78L51.15 46.7L56.21 41.64C57.08 40.77 57.79 39.79 58.37 38.72C57.51 38.88 56.63 38.95 55.76 38.95C54.37 38.95 52.99 38.75 51.65 38.36Z" fill="black"/>
<path d="M58.47 3.69L46.85 15.31C45.98 16.18 45.27 17.16 44.69 18.23C46.92 17.84 49.23 17.96 51.42 18.59L62.39 7.62C65.15 4.86 69.63 4.85 72.39 7.61C73.7154 8.93646 74.4599 10.7349 74.4599 12.61C74.4599 14.4851 73.7154 16.2835 72.39 17.61L60.77 29.23C59.41 30.6 57.59 31.29 55.76 31.29C54.14 31.29 52.52 30.74 51.21 29.64C51.0584 29.5087 50.9116 29.372 50.77 29.23C50.65 29.12 50.56 29.01 50.46 28.89C48.61 27.35 45.89 27.41 44.08 28.94C44.71 30.51 45.63 31.93 46.84 33.15C48.23 34.53 49.85 35.54 51.68 36.17C54.32 37.06 57.23 37.06 59.87 36.16C61.69 35.53 63.31 34.52 64.69 33.15L76.3 21.53C81.23 16.6 81.23 8.6 76.3 3.69C71.38 -1.23 63.38 -1.23 58.47 3.69Z" fill="black"/>
</svg>
