<svg width="102" height="88" viewBox="0 0 102 88" fill="none" xmlns="http://www.w3.org/2000/svg">
<path d="M92.1632 82.678L85.2473 35.5677C85.0865 34.4706 84.5361 33.468 83.6969 32.7432C82.8578 32.0183 81.7858 31.6197 80.6769 31.6201H5.40089C4.73699 31.6199 4.08083 31.7627 3.47705 32.0388C2.87328 32.3148 2.33604 32.7177 1.90191 33.22C1.46777 33.7223 1.14691 34.3122 0.961154 34.9496C0.775401 35.5869 0.729112 36.2569 0.825437 36.9137L7.74132 84.024C7.90293 85.1208 8.45346 86.123 9.29247 86.8477C10.1315 87.5724 11.2031 87.9713 12.3117 87.9717H87.5928C88.2563 87.9713 88.912 87.8281 89.5152 87.5517C90.1185 87.2754 90.6551 86.8724 91.0887 86.3702C91.5224 85.868 91.8428 85.2782 92.0282 84.6412C92.2136 84.0041 92.2596 83.3345 92.1632 82.678ZM12.7058 54.3333L10.9224 42.1731C10.8761 41.8571 10.8983 41.5348 10.9877 41.2281C11.077 40.9215 11.2313 40.6377 11.4402 40.396C11.649 40.1543 11.9074 39.9604 12.1978 39.8275C12.4883 39.6947 12.8039 39.6259 13.1233 39.6259H25.2359C25.77 39.6259 26.2862 39.818 26.6903 40.1671C27.0944 40.5163 27.3594 40.9992 27.4369 41.5275L29.2203 53.6877C29.2666 54.0038 29.2444 54.3261 29.155 54.6327C29.0657 54.9394 28.9114 55.2232 28.7025 55.4649C28.4937 55.7065 28.2353 55.9004 27.9449 56.0333C27.6544 56.1662 27.3388 56.235 27.0194 56.235H14.9067C14.3727 56.235 13.8565 56.0429 13.4524 55.6937C13.0483 55.3446 12.7833 54.8617 12.7058 54.3333Z" fill="oklch(88% 6% 88deg)"/>
<path d="M89.1246 27.7428V29.9577C89.1242 30.177 89.0563 30.3909 88.9302 30.5703C88.8041 30.7497 88.6258 30.8859 88.4196 30.9605C88.2133 31.0351 87.9892 31.0444 87.7775 30.9872C87.5658 30.93 87.3768 30.809 87.2362 30.6407C86.4258 29.6922 85.4203 28.9297 84.2883 28.4053C83.1563 27.8809 81.9244 27.6069 80.6769 27.6022H0.775212V26.3215C0.773881 25.4255 1.06678 24.5538 1.60892 23.8404L9.23798 13.7554C9.623 13.2477 10.1204 12.8362 10.6912 12.5529C11.2619 12.2697 11.8905 12.1226 12.5277 12.1231H35.3646C36.0018 12.1226 36.6304 12.2697 37.2011 12.5529C37.7719 12.8361 38.2693 13.2477 38.6543 13.7554L45.8816 23.308C46.2659 23.8152 46.7625 24.2264 47.3324 24.5096C47.9022 24.7928 48.5299 24.9402 49.1662 24.9403H86.0508C86.8201 24.9409 87.5616 25.2285 88.13 25.7468C88.6985 26.2651 89.0532 26.9769 89.1246 27.7428Z" fill="oklch(88% 6% 88deg)"/>
<path d="M95.1778 21.6929V62.7827C95.1778 63.1386 95.0431 63.4813 94.8008 63.742C94.5585 64.0026 94.2265 64.1619 93.8716 64.1878C93.5167 64.2137 93.1651 64.1043 92.8875 63.8816C92.6099 63.6589 92.4269 63.3394 92.3753 62.9872V27.4436C92.2443 25.9558 91.5901 24.5626 90.529 23.5116C89.4678 22.4605 88.0684 21.8197 86.5795 21.703V21.698H50.4732C50.4426 21.6937 50.4124 21.687 50.3828 21.6779C49.7482 21.5527 49.1817 21.1988 48.7907 20.6835L41.5634 11.1308C41.042 10.4459 40.3698 9.89021 39.599 9.50697C38.8282 9.12374 37.9794 8.92321 37.1186 8.92094H14.3721L14.4172 8.86067L15.2912 7.71055C15.6748 7.20259 16.1712 6.79073 16.7412 6.50746C17.3113 6.22419 17.9393 6.07726 18.5758 6.07826H41.4178C42.0545 6.0767 42.6827 6.22339 43.2528 6.50671C43.823 6.79002 44.3193 7.20218 44.7025 7.71055L51.9298 17.2632C52.3155 17.7698 52.8131 18.1803 53.3838 18.4626C53.9545 18.7449 54.5828 18.8913 55.2195 18.8905H92.0992C92.7675 18.8905 93.4177 19.1073 93.9524 19.5082C94.0345 19.5692 94.1133 19.6346 94.1884 19.7041C94.7523 20.2222 95.1046 20.9306 95.1778 21.6929Z" fill="oklch(88% 6% 88deg)"/>
<path d="M101.225 15.6459V86.5826C101.225 86.9515 101.078 87.3054 100.817 87.5663C100.556 87.8272 100.203 87.9738 99.8336 87.9738C99.6509 87.9738 99.47 87.9378 99.3012 87.8679C99.1324 87.798 98.979 87.6955 98.8498 87.5663C98.7206 87.4371 98.6182 87.2838 98.5482 87.115C98.4783 86.9462 98.4423 86.7653 98.4423 86.5826V21.6929L98.4273 21.3815C98.279 19.824 97.562 18.3756 96.4133 17.3134C96.2527 17.1644 96.0833 17.0252 95.906 16.8965C94.9553 16.1773 93.8195 15.7435 92.6314 15.6459H56.5252C56.4946 15.6416 56.4644 15.6349 56.4349 15.6258C55.7983 15.502 55.2297 15.148 54.8377 14.6314L47.6104 5.07874C47.0898 4.39297 46.4177 3.83674 45.6467 3.45341C44.8757 3.07009 44.0266 2.87004 43.1656 2.86886H20.4241L20.4642 2.81362L21.3381 1.65847C21.7225 1.15134 22.2191 0.740072 22.7889 0.456886C23.3588 0.173701 23.9865 0.0262847 24.6228 0.0261841H47.4648C48.1019 0.0262469 48.7303 0.173615 49.301 0.456774C49.8716 0.739932 50.3691 1.15121 50.7545 1.65847L57.9818 11.2111C58.3662 11.7182 58.8627 12.1295 59.4326 12.4127C60.0024 12.6959 60.6301 12.8433 61.2664 12.8434H98.146C98.9161 12.843 99.6586 13.1301 100.228 13.6485C100.798 14.1669 101.153 14.8792 101.225 15.6459Z" fill="oklch(88% 6% 88deg)"/>
</svg>

