<svg width="77" height="77" viewBox="0 0 77 77" fill="none" xmlns="http://www.w3.org/2000/svg">
<path d="M38.4767 77C28.5066 77 19.0862 73.2189 11.8643 66.2983C4.43915 59.1833 0.228887 49.6034 0.00903748 39.3233C-0.210812 29.0417 3.58686 19.2901 10.7003 11.865C17.8153 4.43983 27.3953 0.229604 37.6771 0.00825092C46.188 -0.164917 54.3525 2.39043 61.2205 7.41681C62.5938 8.42419 62.8935 10.3531 61.8876 11.7279C60.8817 13.1012 58.9543 13.4024 57.5764 12.395C51.8107 8.17573 45.0089 6.00286 37.8081 6.17602C29.1752 6.35973 21.1296 9.89687 15.1546 16.1324C9.17947 22.3679 5.99165 30.5565 6.17687 39.1908C6.36058 47.8251 9.89624 55.8706 16.1318 61.8456C22.3674 67.8206 30.5636 71.0491 39.1904 70.8232C47.8248 70.6395 55.8704 67.1039 61.8454 60.8683C67.8205 54.6328 71.0083 46.4442 70.8231 37.81C70.7162 32.752 69.4799 27.9364 67.1474 23.4943C66.3554 21.987 66.9366 20.1213 68.4439 19.3307C69.9528 18.5387 71.817 19.1184 72.6075 20.6272C75.3873 25.9216 76.863 31.6587 76.991 37.6774C77.2108 47.9591 73.4131 57.7107 66.2997 65.1358C59.1847 72.5609 49.6047 76.7711 39.3229 76.991C39.0413 76.997 38.7582 77 38.4767 77Z" fill="oklch(88% 6% 88deg)"/>
<path d="M39.1716 28.6321C36.273 29.8893 33.6763 32.0359 32.2195 34.8079C28.4733 41.937 33.8671 48.0714 41.4705 45.3343C44.4365 44.2666 46.9288 41.9777 48.5685 39.2708L64 17L39.1716 28.6321ZM38.6935 43.7471C35.8093 43.7471 33.4711 41.4191 33.4711 38.5471C33.4711 35.6753 35.8093 33.3472 38.6935 33.3472C41.5776 33.3472 43.9156 35.6753 43.9156 38.5471C43.9156 41.4191 41.5776 43.7471 38.6935 43.7471Z" fill="oklch(88% 6% 88deg)"/>
<path d="M38.2047 47C35.6918 47 33.4427 46.0634 31.9013 44.2761C29.5818 41.5849 29.3694 37.5325 31.3474 33.7013C32.8522 30.7875 35.5072 28.3753 38.823 26.9058L68 13L49.8239 39.6894C47.9909 42.7725 45.2627 45.1341 42.1901 46.2593C40.8333 46.7566 39.4853 47 38.2047 47ZM38.9783 34.4792C37.0032 34.4792 35.3959 36.1075 35.3959 38.1085C35.3959 40.1095 37.0032 41.7378 38.9783 41.7378C40.9534 41.7378 42.5593 40.1095 42.5593 38.1085C42.5593 36.1075 40.9534 34.4792 38.9783 34.4792ZM38.9783 31.4391C42.6077 31.4391 45.5601 34.4317 45.5601 38.1085C45.5601 39.1683 45.3154 40.1703 44.8802 41.0609C45.8004 40.2015 46.6268 39.1787 47.3037 38.0402L59.216 20.5466L40.0421 29.6846C38.7497 30.2546 37.5658 31.0161 36.5548 31.9067C37.305 31.6054 38.1226 31.4391 38.9783 31.4391Z" fill="oklch(88% 6% 88deg)"/>
</svg>

