<svg width="77" height="56" viewBox="0 0 77 56" fill="none" xmlns="http://www.w3.org/2000/svg">
<path d="M71.6487 26.2723C68.2371 23.3614 63.7971 22.4733 59.7206 23.8002C58.4123 20.1898 55.5122 17.453 51.7606 16.2734C51.6414 14.2 51.2035 12.1466 50.3618 10.1501C48.025 4.6065 42.7976 1.1012 36.7181 1.00188C31.2752 0.919472 26.4648 3.55639 23.7645 8.00195C19.3373 5.26573 13.8409 5.09952 9.04317 7.64487C3.67215 10.4931 0.605608 15.9895 1.04087 21.9894C2.10014 36.658 20.543 45.3871 32.6796 47.6761C32.7683 47.6923 32.8585 47.7007 32.9472 47.7007C33.2642 47.7007 33.5741 47.5965 33.829 47.4C35.1298 46.3957 36.4782 45.2351 37.8252 43.9525C39.6256 47.9085 41.9578 51.5022 44.2161 54.2127C44.4795 54.529 44.8669 54.7177 45.2782 54.7311C45.6839 54.7445 46.0994 54.7508 46.5234 54.7508C56.8288 54.7508 72.2263 50.8194 75.6083 39.5224C77.0606 34.6697 75.5435 29.5931 71.6487 26.2723ZM39.9043 22.6148C41.9795 19.6934 45.3635 18.2267 48.8976 18.6139C48.4782 25.7443 44.0025 33.0823 38.8555 38.7805C36.988 33.1022 36.6822 27.1515 39.9043 22.6148ZM32.5768 44.7159C21.3206 42.4206 4.8427 34.581 3.91724 21.7809C3.5665 16.9382 6.04847 12.4982 10.3954 10.193C12.2421 9.21335 14.2156 8.7302 16.1609 8.7302C18.7372 8.7302 21.2628 9.57889 23.3786 11.2481C23.7237 11.5214 24.1787 11.62 24.6083 11.5178C25.0379 11.415 25.3971 11.1206 25.5816 10.7192C27.5593 6.42572 31.7527 3.78247 36.6716 3.886C41.5905 3.96699 45.8177 6.79618 47.7024 11.2706C48.3114 12.715 48.6767 14.199 48.8384 15.704C44.3888 15.3405 40.1712 17.2552 37.552 20.9442C33.4643 26.7007 34.1126 34.2286 36.6482 41.0884C35.2836 42.4351 33.9069 43.6572 32.5768 44.7159ZM72.8446 38.6955C69.8598 48.6635 55.4469 51.9906 46.0205 51.8625C43.8433 49.1522 41.6199 45.6051 39.9821 41.7842C45.7454 35.6801 50.987 27.4862 51.7154 19.3333C54.596 20.5273 56.7024 22.9558 57.3683 26.0356C57.4626 26.4674 57.7486 26.8329 58.1458 27.0266C58.5416 27.2217 59.0065 27.2224 59.4051 27.0301C62.8238 25.3799 66.8003 25.9307 69.7781 28.4676C72.7883 31.0355 73.9645 34.9542 72.8446 38.6955Z" fill="oklch(88% 6% 88deg)" stroke="black"/>
</svg>

