<svg width="64" height="63" viewBox="0 0 64 63" fill="none" xmlns="http://www.w3.org/2000/svg">
<path fill-rule="evenodd" clip-rule="evenodd" d="M11.168 0.249573C10.4727 0.249573 9.8203 0.597234 9.4336 1.17535L1.1016 13.6754C0.644572 14.3629 0.636761 15.2535 1.07816 15.9488L30.2462 61.7808C30.629 62.3823 31.2931 62.7456 32.004 62.7456C32.7149 62.7456 33.379 62.3823 33.7618 61.7808L62.9298 15.9488C63.3712 15.2534 63.3634 14.3629 62.9063 13.6754L54.5743 1.17535C54.1876 0.597234 53.5352 0.249573 52.8399 0.249573H11.168ZM12.2813 4.41757H26.9723L18.6403 12.7496H6.7303L12.285 4.41757H12.2813ZM37.0273 4.41757H51.7183L57.273 12.7496H45.363L37.031 4.41757H37.0273ZM32 5.28085L39.4727 12.7536H24.5317L32.0044 5.28085H32ZM6.625 16.9179H17.926L27.1291 49.1329L6.625 16.9179ZM22.266 16.9179H41.731L31.9966 50.9879L22.2622 16.9179H22.266ZM46.075 16.9179H57.376L36.872 49.1369L46.075 16.9179Z" fill="oklch(88% 6% 88deg)"/>
</svg>

