<svg width="90" height="90" viewBox="0 0 90 90" fill="none" xmlns="http://www.w3.org/2000/svg">
<path d="M89.445 3.332C89.3747 1.8281 88.1716 0.625004 86.6677 0.554704C57.2227 -0.0820158 35.9727 7.168 23.2497 22.1957C8.4447 39.6407 10.1087 61.6687 10.9447 67.9457C6.6361 73.2074 3.1947 79.1257 0.749701 85.4727C0.484081 86.2071 0.52314 87.0196 0.85517 87.7305C1.19111 88.4375 1.79267 88.9844 2.52707 89.25C4.06227 89.8008 5.75367 89.0078 6.30437 87.4727C8.42937 81.9844 11.3903 76.8597 15.0817 72.2777C18.9528 72.9535 22.8747 73.2855 26.8047 73.2777C35.4414 73.3129 44.0037 71.6879 52.0277 68.5004C91.9457 52.2504 89.445 3.859 89.445 3.332ZM49.777 63C40.1754 66.7539 29.797 68.0977 19.554 66.918C25.1009 60.8399 31.21 55.305 37.804 50.391C38.4485 49.9418 38.886 49.2543 39.0188 48.4848C39.1555 47.7114 38.9797 46.9184 38.5266 46.2778C37.5813 44.938 35.7297 44.6137 34.3899 45.5551C27.9094 50.3559 21.8939 55.7501 16.4169 61.6681C16.2216 53.0587 17.5849 38.1131 27.8079 26.0861C38.9169 13.0041 57.6669 6.64114 83.3629 6.64114C83.359 16.3911 80.4997 50.555 49.777 63Z" fill="oklch(88% 6% 88deg)"/>
</svg>

