<svg width="84" height="90" viewBox="0 0 84 90" fill="none" xmlns="http://www.w3.org/2000/svg">
<path fill-rule="evenodd" clip-rule="evenodd" d="M40.07 1.9297C40.07 0.8633 40.9333 0 41.9997 0C43.0661 0 43.9294 0.86328 43.9294 1.9297V5.75C43.9294 6.8164 43.0661 7.6797 41.9997 7.6797C40.9333 7.6797 40.07 6.81642 40.07 5.75V1.9297ZM60.07 6.2578V6.26171C60.6208 5.3789 61.7692 5.09371 62.6716 5.61327C63.5701 6.1328 63.8982 7.27347 63.4099 8.19137L61.531 11.5C60.9763 12.3789 59.8279 12.668 58.9294 12.1445C58.031 11.625 57.7028 10.4883 58.1911 9.5703L60.1013 6.2617L60.07 6.2578ZM75.281 19.9998C76.2029 19.4646 77.3826 19.7771 77.9216 20.699C78.4568 21.6209 78.1404 22.8045 77.2185 23.3396L73.9099 25.2498C73.0193 25.6092 71.9997 25.2576 71.5193 24.4217C71.0388 23.5897 71.242 22.5311 71.9998 21.9412L75.281 19.9998ZM6.28101 39.5118C7.29271 39.5821 8.08181 40.4259 8.08181 41.4454C8.08181 42.461 7.29275 43.3087 6.28101 43.379H2.46071C1.44511 43.3087 0.659912 42.461 0.659912 41.4454C0.659912 40.4259 1.44507 39.5821 2.46071 39.5118H6.28101ZM81.543 39.5118H81.5391C82.5547 39.5821 83.3399 40.4259 83.3399 41.4454C83.3399 42.461 82.5547 43.3087 81.5391 43.379H77.7188C76.7071 43.3087 75.918 42.461 75.918 41.4454C75.918 40.4259 76.7071 39.5821 77.7188 39.5118H81.543ZM12 21.9418C12.8516 22.5043 13.1172 23.6293 12.6094 24.5121C12.1016 25.3949 10.9922 25.7309 10.0782 25.2816L6.76959 23.3714C6.32428 23.1136 5.99615 22.6878 5.86334 22.1917C5.73053 21.6917 5.79694 21.1605 6.05475 20.7151C6.58991 19.7854 7.78135 19.4651 8.71095 20.0003L12 21.9418ZM25.809 9.5708C26.1059 10.0161 26.1996 10.5591 26.0785 11.0786C25.9535 11.5981 25.6254 12.0434 25.1606 12.3091C24.6996 12.5747 24.1489 12.6372 23.6411 12.481C23.1294 12.3247 22.7075 11.9693 22.4692 11.4888L20.559 8.18019C20.0316 7.25831 20.3519 6.08249 21.2738 5.55519C22.1996 5.02785 23.3715 5.34816 23.8988 6.27003L25.809 9.5708ZM54.18 73.8798H29.821V79.6025C29.821 80.4736 30.528 81.1806 31.3991 81.1806H52.6021C53.0201 81.1806 53.4224 81.0126 53.7193 80.7197C54.0123 80.4228 54.1803 80.0204 54.1803 79.6025L54.18 73.8798ZM29.078 70.0009H54.922C56.6915 66.6259 58.9728 63.5439 61.6915 60.872C66.9103 55.6493 69.8399 48.567 69.8399 41.184C69.8399 33.8012 66.9063 26.723 61.6837 21.5C56.4649 16.2812 49.3827 13.3477 41.9997 13.3477C34.6167 13.3477 27.5347 16.2813 22.3157 21.5C17.093 26.7227 14.1595 33.801 14.1595 41.184C14.1595 48.5668 17.0892 55.649 22.3079 60.872C25.0267 63.5439 27.3085 66.6259 29.078 70.0009ZM34.2382 85.0009L35.3984 88.0009C35.8633 89.2431 37.0742 90.0517 38.3984 90.0009H45.6406C46.9648 90.0517 48.1758 89.2431 48.6406 88.0009L49.8008 85.079L34.2382 85.0009ZM41.9999 23.2309C40.9843 23.1567 40.1991 22.3129 40.1991 21.2973C40.1991 20.2778 40.9843 19.434 41.9999 19.3598C47.8358 19.3598 53.4299 21.6801 57.5549 25.8051C61.6838 29.9301 64.0002 35.5239 64.0002 41.3601C63.926 42.3757 63.0822 43.1609 62.0666 43.1609C61.0471 43.1609 60.2033 42.3757 60.1291 41.3601C60.1291 36.5515 58.2189 31.9421 54.8205 28.5401C51.4182 25.1417 46.8082 23.2309 41.9999 23.2309Z" fill="oklch(88% 6% 88deg)"/>
</svg>

