<svg width="94" height="99" viewBox="0 0 94 99" fill="none" xmlns="http://www.w3.org/2000/svg">
<path d="M9.60997 43.55L21.21 48.36C19.9021 51.662 18.8588 55.0627 18.09 58.53L17.65 60.53L34.28 77.17L36.28 76.74C39.7473 75.9712 43.148 74.9279 46.45 73.62L51.26 85.22C51.3071 85.335 51.3821 85.4364 51.4781 85.5153C51.5742 85.5941 51.6883 85.6478 51.8103 85.6716C51.9322 85.6954 52.0582 85.6885 52.1768 85.6516C52.2955 85.6146 52.4031 85.5488 52.49 85.46L59.76 78.19C60.9464 77.0037 61.8709 75.5818 62.4738 74.0161C63.0766 72.4504 63.3445 70.7756 63.26 69.1L63 64.43C76.46 54.49 90.08 37.06 93.79 6.64001C93.8952 5.87731 93.8229 5.10062 93.5786 4.37047C93.3344 3.64032 92.9248 2.97644 92.3818 2.43057C91.8389 1.88471 91.1772 1.4716 90.4483 1.22347C89.7195 0.975326 88.9432 0.898853 88.18 1.00001C57.77 4.74001 40.33 18.37 30.39 31.79L25.73 31.55C24.058 31.459 22.3854 31.719 20.8199 32.3132C19.2544 32.9073 17.8306 33.8226 16.64 35L9.36997 42.27C9.26924 42.3556 9.19294 42.4664 9.1488 42.591C9.10465 42.7156 9.09424 42.8497 9.1186 42.9796C9.14297 43.1096 9.20125 43.2308 9.28754 43.3309C9.37383 43.4311 9.48507 43.5067 9.60997 43.55ZM56.25 25.83C57.5099 24.5745 59.1136 23.7204 60.8586 23.3757C62.6035 23.0309 64.4115 23.211 66.0542 23.8931C67.697 24.5752 69.1007 25.7288 70.0883 27.2081C71.0758 28.6875 71.6029 30.4263 71.6029 32.205C71.6029 33.9837 71.0758 35.7225 70.0883 37.2019C69.1007 38.6813 67.697 39.8348 66.0542 40.5169C64.4115 41.199 62.6035 41.3791 60.8586 41.0344C59.1136 40.6896 57.5099 39.8356 56.25 38.58C55.4109 37.7439 54.7452 36.7503 54.291 35.6564C53.8367 34.5624 53.6029 33.3895 53.6029 32.205C53.6029 31.0205 53.8367 29.8476 54.291 28.7536C54.7452 27.6597 55.4109 26.6661 56.25 25.83ZM7.43997 78.5C5.515 77.8245 3.44786 77.6591 1.43997 78.02C1.26152 78.0586 1.07619 78.0513 0.901314 77.9989C0.726434 77.9464 0.56771 77.8505 0.439973 77.72C0.28162 77.5623 0.175583 77.3597 0.13623 77.1397C0.0968781 76.9196 0.126113 76.6928 0.219973 76.49C2.34997 71.91 7.99997 62.7 18.23 70.14C18.2834 70.1878 18.3262 70.2464 18.3554 70.3119C18.3847 70.3774 18.3998 70.4483 18.3998 70.52C18.3998 70.5917 18.3847 70.6626 18.3554 70.7281C18.3262 70.7936 18.2834 70.8522 18.23 70.9C16.8604 71.9786 15.7638 73.3643 15.029 74.9452C14.2942 76.5261 13.9416 78.2577 14 80C14.0074 80.2045 14.092 80.3986 14.2367 80.5433C14.3814 80.688 14.5755 80.7726 14.78 80.78C16.5149 80.8498 18.242 80.5115 19.8225 79.7925C21.4029 79.0735 22.7926 77.9937 23.88 76.64C23.9278 76.5814 23.9881 76.5342 24.0564 76.5018C24.1247 76.4694 24.1994 76.4526 24.275 76.4526C24.3506 76.4526 24.4253 76.4694 24.4936 76.5018C24.5619 76.5342 24.6221 76.5814 24.67 76.64C26.09 78.33 30 83.85 25.67 89.18C23.7797 91.452 21.0712 92.8889 18.13 93.18C13.93 93.63 6.16997 95 2.99997 98.62C2.87272 98.7708 2.70693 98.8842 2.52029 98.9481C2.33364 99.0121 2.13314 99.0242 1.94016 98.9831C1.74719 98.942 1.56898 98.8494 1.42453 98.715C1.28008 98.5806 1.17482 98.4095 1.11997 98.22C-2.69413e-05 94.4 -1.74003 85.86 7.43997 78.5Z" fill="oklch(88% 6% 88deg)"/>
</svg>

