<svg width="74" height="82" viewBox="0 0 74 82" fill="none" xmlns="http://www.w3.org/2000/svg">
<path d="M51.707 30.457C52.9258 31.6797 52.9258 33.6562 51.707 34.875L35.039 51.543H35.0429C34.457 52.1289 33.6601 52.4571 32.832 52.4571C31.9492 52.4063 31.125 52 30.5429 51.3321L22.2109 41.3321H22.207C21.0586 40.0001 21.207 37.9844 22.5429 36.8321C23.8749 35.6837 25.8906 35.8321 27.0429 37.168L33.1679 44.543L47.4179 30.293C48.664 29.1992 50.5468 29.2734 51.707 30.457ZM73.164 23.414L72.371 31.164L72.3749 31.1679C70.3202 51.6449 58.4919 69.8669 40.6249 80.0819C38.3788 81.3631 35.621 81.3631 33.3749 80.0819C15.5079 69.8669 3.67994 51.6439 1.62494 31.1679L0.831968 23.4179C0.484308 20.3515 2.07807 17.3906 4.83197 15.9999L33.75 1.54291C35.8008 0.542908 38.1992 0.542908 40.25 1.54291L69.168 15.9999C71.9219 17.3905 73.5157 20.3515 73.168 23.4179L73.164 23.414ZM66.957 22.789V22.7929C66.9804 22.3632 66.7539 21.957 66.375 21.7499L37.457 7.29291C37.1757 7.12885 36.8242 7.12885 36.5429 7.29291L7.83191 21.7499C7.45691 21.9569 7.23035 22.3632 7.24988 22.7929L7.83191 30.5429C9.67571 49.0269 20.3589 65.4689 36.4999 74.6679C36.8007 74.8749 37.1991 74.8749 37.4999 74.6679C53.6409 65.4687 64.3239 49.0269 66.1679 30.5429L66.957 22.789Z" fill="oklch(88% 6% 88deg)"/>
</svg>

