<svg width="76" height="90" viewBox="0 0 76 90" fill="none" xmlns="http://www.w3.org/2000/svg">
<path fill-rule="evenodd" clip-rule="evenodd" d="M17.578 35.875H46.359C53.9996 35.875 60.23 42.1016 60.23 49.746V76.125C60.23 83.7695 53.9995 89.996 46.359 89.996L13.964 89.9999C6.32342 89.9999 0.0930176 83.7733 0.0930176 76.1289V49.7499C0.0930176 43.8749 3.79222 38.7339 9.13992 36.7419L6.04222 25.1519C4.62032 19.8433 5.50316 14.4409 8.06562 9.99993C13.6125 0.410131 25.7416 -2.84007 35.3276 2.69913C39.7612 5.25773 43.2221 9.50383 44.644 14.8121C45.2378 17.0465 43.9096 19.3394 41.6792 19.9332C39.4526 20.5309 37.1597 19.2028 36.5581 16.9684C34.9097 10.8122 28.5151 7.10513 22.3311 8.75753C16.1709 10.4098 12.4717 16.8122 14.1202 22.9845L17.5733 35.8715L17.578 35.875ZM57.246 12.598L61.0233 6.04722C61.9491 4.44952 61.4061 2.40273 59.8085 1.47693C58.2108 0.551145 56.164 1.09412 55.2382 2.69573L51.453 9.24652C50.5272 10.8442 51.078 12.891 52.6757 13.8168C54.2734 14.7426 56.3202 14.1957 57.246 12.598ZM62.3319 22.4574L68.8827 18.6762C70.4804 17.7504 71.0272 15.7035 70.1054 14.1059C69.1796 12.5082 67.1288 11.9614 65.5351 12.8871L58.9843 16.6683C57.3866 17.5941 56.8476 19.641 57.7695 21.2386C58.6953 22.8363 60.7342 23.3831 62.3319 22.4574ZM64.9921 32.6994C63.1327 32.6994 61.6327 31.1994 61.6327 29.3478C61.6327 27.4962 63.1327 25.9962 64.9921 25.9962H72.5546C74.4062 25.9962 75.9062 27.4962 75.9062 29.3478C75.9062 31.1994 74.4062 32.6994 72.5546 32.6994H64.9921ZM26.8081 74.7974H33.5151V66.4107C34.3784 66.0006 35.1479 65.4381 35.8003 64.7584C37.2847 63.3365 38.2065 61.3326 38.2065 59.1178C38.2065 56.899 37.2807 54.899 35.8003 53.4772C34.3784 51.9967 32.3784 51.0749 30.1636 51.0749C27.9488 51.0749 25.9409 51.9968 24.5191 53.4772C23.0347 54.8991 22.1129 56.903 22.1129 59.1178C22.1129 61.3366 23.0387 63.3366 24.5191 64.7584C25.1715 65.4381 25.9488 66.0006 26.8043 66.4107V74.7974H26.8081Z" fill="black"/>
</svg>

